<?xml version="1.0" encoding="utf-8"?>
<!-- Generated by Mocodo 4.1.0 -->
<svg width="206" height="354" viewBox="0 0 206 354" xmlns="http://www.w3.org/2000/svg">
<rect x="0" y="0" width="206" height="354" fill="#f7f7f7" stroke="none" stroke-width="0"/>

<!-- Association ASSOCIER -->
<g>
	<line x1="48" y1="177" x2="158" y2="51" stroke="#de77ae" stroke-width="2"/>
	<line x1="48" y1="51" x2="158" y2="51" stroke="#de77ae" stroke-width="2"/>
	<g>
		<path d="M183 26 a14 14 90 0 1 14 14 V51 h-78 V40 a14 14 90 0 1 14 -14" fill="#f1b6da" stroke="#f1b6da" stroke-width="0"/>
		<path d="M197 51 v11 a14 14 90 0 1 -14 14 H133 a14 14 90 0 1 -14 -14 V51 H78" fill="#fde0ef" stroke="#fde0ef" stroke-width="0"/>
		<rect x="119" y="26" width="78" height="50" fill="none" rx="14" stroke="#de77ae" stroke-width="2"/>
		<line x1="119" y1="51" x2="197" y2="51" stroke="#de77ae" stroke-width="1"/>
		<text x="126" y="43.75" fill="#000000" font-family="Verdana" font-size="12">ASSOCIER</text>
	</g>
	<text x="87" y="148.66" fill="#4d9221" font-family="Verdana" font-size="12">0,N</text>
	<text x="92" y="68" fill="#4d9221" font-family="Verdana" font-size="12">1,1</text>
</g>

<!-- Association ACHETER -->
<g>
	<line x1="48" y1="177" x2="158" y2="303" stroke="#de77ae" stroke-width="2"/>
	<line x1="48" y1="303" x2="158" y2="303" stroke="#de77ae" stroke-width="2"/>
	<g>
		<path d="M175 278 a14 14 90 0 1 14 14 V303 h-62 V292 a14 14 90 0 1 14 -14" fill="#f1b6da" stroke="#f1b6da" stroke-width="0"/>
		<path d="M189 303 v11 a14 14 90 0 1 -14 14 H141 a14 14 90 0 1 -14 -14 V303 H62" fill="#fde0ef" stroke="#fde0ef" stroke-width="0"/>
		<rect x="127" y="278" width="62" height="50" fill="none" rx="14" stroke="#de77ae" stroke-width="2"/>
		<line x1="127" y1="303" x2="189" y2="303" stroke="#de77ae" stroke-width="1"/>
		<text x="135" y="295.75" fill="#000000" font-family="Verdana" font-size="12">Acheter</text>
	</g>
	<text x="87" y="214.34" fill="#4d9221" font-family="Verdana" font-size="12">0,N</text>
	<text x="88" y="320" fill="#4d9221" font-family="Verdana" font-size="12">1,1</text>
</g>

<!-- Entity TASKS -->
<g>
	<g>
		<rect x="9" y="9" width="78" height="25" fill="#b8e186" stroke="none" stroke-width="0" opacity="1"/>
		<rect x="9" y="34" width="78" height="59" fill="#e6f5d0" stroke="none" stroke-width="0" opacity="1"/>
		<rect x="9" y="9" width="78" height="84" fill="none" stroke="#7fbc41" stroke-width="2" opacity="1"/>
		<line x1="9" y1="34" x2="87" y2="34" stroke="#7fbc41" stroke-width="1"/>
	</g>
	<text x="28" y="26.75" fill="#000000" font-family="Verdana" font-size="12">TASKS</text>
	<text x="14" y="51.8" fill="#000000" font-family="Verdana" font-size="12">nom</text>
	<text x="14" y="68.8" fill="#000000" font-family="Verdana" font-size="12">completion</text>
	<text x="14" y="85.8" fill="#000000" font-family="Verdana" font-size="12">status</text>
</g>

<!-- Entity USERS -->
<g>
	<g>
		<rect x="14" y="118" width="68" height="25" fill="#b8e186" stroke="none" stroke-width="0" opacity="1"/>
		<rect x="14" y="143" width="68" height="93" fill="#e6f5d0" stroke="none" stroke-width="0" opacity="1"/>
		<rect x="14" y="118" width="68" height="118" fill="none" stroke="#7fbc41" stroke-width="2" opacity="1"/>
		<line x1="14" y1="143" x2="82" y2="143" stroke="#7fbc41" stroke-width="1"/>
	</g>
	<text x="27" y="135.75" fill="#000000" font-family="Verdana" font-size="12">USERS</text>
	<text x="19" y="160.8" fill="#000000" font-family="Verdana" font-size="12">nom</text>
	<text x="19" y="177.8" fill="#000000" font-family="Verdana" font-size="12">prenom</text>
	<text x="19" y="194.8" fill="#000000" font-family="Verdana" font-size="12">mail</text>
	<text x="19" y="211.8" fill="#000000" font-family="Verdana" font-size="12">pseudo</text>
	<text x="19" y="228.8" fill="#000000" font-family="Verdana" font-size="12">password</text>
</g>

<!-- Entity COURSES -->
<g>
	<g>
		<rect x="13" y="261" width="70" height="25" fill="#b8e186" stroke="none" stroke-width="0" opacity="1"/>
		<rect x="13" y="286" width="70" height="59" fill="#e6f5d0" stroke="none" stroke-width="0" opacity="1"/>
		<rect x="13" y="261" width="70" height="84" fill="none" stroke="#7fbc41" stroke-width="2" opacity="1"/>
		<line x1="13" y1="286" x2="83" y2="286" stroke="#7fbc41" stroke-width="1"/>
	</g>
	<text x="18" y="278.75" fill="#000000" font-family="Verdana" font-size="12">COURSES</text>
	<text x="18" y="303.8" fill="#000000" font-family="Verdana" font-size="12">nom</text>
	<text x="18" y="320.8" fill="#000000" font-family="Verdana" font-size="12">quantité</text>
	<text x="18" y="337.8" fill="#000000" font-family="Verdana" font-size="12">status</text>
</g>
</svg>